HIERARCHY
ROOT Hips
{
	OFFSET 0.00 0.00 0.00
	CHANNELS 6 Xposition Yposition Zposition Xrotation Yrotation Zrotation
	JOINT Spine
	{
		OFFSET 0.00000 7.17041 0.00000
		CHANNELS 3 Xrotation Yrotation Zrotation
		JOINT Head
		{
			OFFSET 0.00000 14.27615 0.00000
			CHANNELS 3 Xrotation Yrotation Zrotation
			End Site
			{
				OFFSET 0.00000 4.52755 0.00000
			}
		}
		JOINT LeftShoulder
		{
			OFFSET 0.00000 10.71824 0.00000
			CHANNELS 3 Xrotation Yrotation Zrotation
			JOINT LeftArm
			{
				OFFSET 7.05887 0.00000 0.00000
				CHANNELS 3 Xrotation Yrotation Zrotation
				JOINT LeftForeArm
				{
					OFFSET 10.95552 0.00000 0.00000
					CHANNELS 3 Yrotation Zrotation Xrotation
					JOINT LeftHand
					{
						OFFSET 8.19372 0.00000 0.00000
						CHANNELS 3 Xrotation Yrotation Zrotation
						JOINT LeftHandThumb1
						{
							OFFSET 0.00000 0.00000 0.00000
							CHANNELS 3 Xrotation Zrotation Yrotation
							End Site
							{
								OFFSET 0.00000 0.00000 3.93700
							}
						}
						End Site
						{
							OFFSET 3.93700 0.00000 0.00000
						}
					}
				}
			}
		}
		JOINT RightShoulder
		{
			OFFSET 0.00000 10.71824 0.00000
			CHANNELS 3 Xrotation Yrotation Zrotation
			JOINT RightArm
			{
				OFFSET -7.05887 0.00000 0.00000
				CHANNELS 3 Xrotation Yrotation Zrotation
				JOINT RightForeArm
				{
					OFFSET -10.95552 0.00000 0.00000
					CHANNELS 3 Yrotation Zrotation Xrotation
					JOINT RightHand
					{
						OFFSET -8.19372 0.00000 0.00000
						CHANNELS 3 Xrotation Yrotation Zrotation
						JOINT RightHandThumb1
						{
							OFFSET 0.00000 0.00000 0.00000
							CHANNELS 3 Xrotation Zrotation Yrotation
							End Site
							{
								OFFSET 0.00000 0.00000 3.93700
							}
						}
						End Site
						{
							OFFSET -3.93700 0.00000 0.00000
						}
					}
				}
			}
		}
	}
	JOINT LeftUpLeg
	{
		OFFSET 4.31835 0.00000 0.00000
		CHANNELS 3 Xrotation Yrotation Zrotation
		JOINT LeftLeg
		{
			OFFSET 0.00000 -17.32364 0.00000
			CHANNELS 3 Xrotation Yrotation Zrotation
			JOINT LeftFoot
			{
				OFFSET 0.00000 -16.27037 0.00000
				CHANNELS 3 Xrotation Yrotation Zrotation
				JOINT LeftToeBase
				{
					OFFSET 0.00000 -1.27412 4.75510
					CHANNELS 3 Xrotation Yrotation Zrotation
					End Site
					{
						OFFSET 0.00000 0.00000 2.95275
					}
				}
			}
		}
	}
	JOINT RightUpLeg
	{
		OFFSET -4.31835 0.00000 0.00000
		CHANNELS 3 Xrotation Yrotation Zrotation
		JOINT RightLeg
		{
			OFFSET 0.00000 -17.32364 0.00000
			CHANNELS 3 Xrotation Yrotation Zrotation
			JOINT RightFoot
			{
				OFFSET 0.00000 -16.27037 0.00000
				CHANNELS 3 Xrotation Yrotation Zrotation
				JOINT RightToeBase
				{
					OFFSET 0.00000 -1.27412 4.75510
					CHANNELS 3 Xrotation Yrotation Zrotation
					End Site
					{
						OFFSET 0.00000 0.00000 2.95275
					}
				}
			}
		}
	}
}
MOTION
Frames: 9
Frame Time: 0.008333
 -5.3287 35.2307 -9.6733 -1.6769 -6.4057 -6.1044 -0.7664 -0.8382 9.4133 5.3739 2.6548 -7.6155 18.6046 19.6830 -13.5021 -32.4723 13.3926 -54.7348 -9.9348 0.0000 20.2641 0.0532 0.6299 -4.8290 33.1476 -0.0000 26.2537 -4.1143 -6.6733 -3.4642 -4.5232 -14.0887 57.0078 20.4551 -0.0000 27.8589 -0.2888 -2.5279 -6.5206 32.8623 0.0000 -24.3270 10.3875 16.1591 4.0023 -9.2196 0.0000 -0.0000 -15.4688 28.4158 6.5492 22.3542 0.0000 -0.0000 8.3456 -2.2929 4.5655 -4.9987 0.0000 0.0000 -4.7572 -27.9416 -6.3914 13.7479 0.0000 -0.0000
 -5.3266 35.2303 -9.6752 -1.6782 -6.4346 -6.1048 -0.8106 -0.8639 9.4379 5.3966 2.6510 -7.6909 18.5991 19.6559 -13.7044 -31.9529 13.6571 -55.5302 -9.8692 0.0000 19.9827 0.0458 0.5106 -5.1262 33.1476 -0.0000 26.2537 -3.9762 -6.6353 -3.2472 -4.2513 -14.2411 57.8081 20.3863 -0.0000 27.7686 -0.2450 -2.3913 -5.8520 32.8623 0.0000 -24.3270 10.3924 16.1899 3.9933 -9.2263 -0.0000 -0.0000 -15.4697 28.4108 6.5411 22.3495 -0.0000 0.0000 8.3351 -2.2683 4.5590 -4.9946 -0.0000 0.0000 -4.7515 -27.9356 -6.3911 13.7397 0.0000 -0.0000
 -5.3248 35.2297 -9.6775 -1.6813 -6.4435 -6.1012 -0.8542 -0.9097 9.4521 5.4355 2.6581 -7.7468 18.6112 19.6231 -13.8921 -31.4816 13.9281 -56.3289 -9.7222 0.0000 19.8653 0.0454 0.4936 -5.2522 33.1476 -0.0000 26.2537 -3.8067 -6.5873 -3.0438 -4.1180 -14.4983 58.6091 20.2296 -0.0000 27.9232 -0.2007 -2.2053 -5.2014 32.8623 0.0000 -24.3270 10.3992 16.1854 3.9851 -9.2355 0.0000 0.0000 -15.4690 28.4153 6.5621 22.3549 -0.0000 0.0000 8.3373 -2.2743 4.5542 -5.0038 -0.0000 -0.0000 -4.7590 -27.9303 -6.4107 13.7607 0.0000 0.0000
 -5.3224 35.2295 -9.6784 -1.6848 -6.4610 -6.0971 -0.9003 -0.9380 9.4723 5.4738 2.6639 -7.8027 18.6111 19.5832 -14.0822 -31.0204 14.2776 -57.1091 -9.6260 0.0000 19.8246 0.0423 0.4343 -5.5593 33.1476 -0.0000 26.2537 -3.6227 -6.5627 -2.8415 -3.9530 -14.6563 59.3807 20.0702 -0.0000 27.9548 -0.1525 -1.9672 -4.4324 32.8623 0.0000 -24.3270 10.4084 16.1971 3.9722 -9.2397 0.0000 -0.0000 -15.4775 28.4227 6.5529 22.3782 0.0000 -0.0000 8.3409 -2.2570 4.5442 -5.0161 0.0000 0.0000 -4.7447 -27.9335 -6.3972 13.7561 0.0000 -0.0000
 -5.3191 35.2296 -9.6802 -1.6799 -6.4793 -6.0963 -0.9559 -0.9723 9.4980 5.5181 2.6453 -7.8591 18.6124 19.5614 -14.3372 -30.6286 14.5428 -57.8023 -9.4348 0.0000 19.7663 0.0341 0.3263 -5.9661 33.1476 -0.0000 26.2537 -3.3810 -6.5438 -2.5965 -3.5801 -14.4162 60.1315 19.9867 -0.0000 27.7481 -0.1395 -1.9872 -4.0175 32.8623 0.0000 -24.3270 10.4098 16.2018 3.9627 -9.2508 0.0000 0.0000 -15.4629 28.4315 6.5574 22.3456 0.0000 -0.0000 8.3308 -2.2417 4.5338 -5.0205 -0.0000 -0.0000 -4.6994 -27.9370 -6.2952 13.6244 -0.0000 0.0000
 -5.3173 35.2294 -9.6820 -1.6807 -6.5055 -6.0919 -1.0052 -0.9741 9.5090 5.5396 2.6084 -7.8980 18.5999 19.5237 -14.5603 -30.1838 14.7371 -58.4961 -9.2444 0.0000 19.7082 0.0291 0.2706 -6.1397 33.1476 -0.0000 26.2537 -3.2111 -6.5484 -2.3986 -3.1892 -14.1697 60.8989 19.8050 -0.0000 27.5087 -0.0958 -1.6700 -3.2833 32.8623 0.0000 -24.3270 10.4136 16.2193 3.9506 -9.2517 0.0000 0.0000 -15.4657 28.4349 6.5541 22.3468 -0.0000 0.0000 8.3208 -2.2318 4.5247 -5.0149 0.0000 -0.0000 -4.7527 -27.9045 -6.4153 13.7915 0.0000 -0.0000
 -5.3181 35.2293 -9.6868 -1.6765 -6.5620 -6.0978 -1.0615 -0.9321 9.5298 5.5596 2.5569 -7.9375 18.6105 19.4751 -14.7919 -29.8317 14.9975 -59.1692 -9.0558 0.0000 19.8508 0.0339 0.2907 -6.6550 33.1476 -0.0000 26.2537 -3.0614 -6.5497 -2.2070 -2.8238 -13.9663 61.6774 19.5826 -0.0000 27.3239 -0.0751 -1.5176 -2.8349 32.8623 0.0000 -24.3270 10.3996 16.2875 3.9503 -9.2455 0.0000 -0.0000 -15.4679 28.4085 6.5515 22.3422 -0.0000 0.0000 8.2873 -2.1653 4.5260 -4.9993 0.0000 0.0000 -4.7527 -27.9107 -6.4231 13.7839 0.0000 -0.0000
 -5.3193 35.2288 -9.6929 -1.6409 -6.5957 -6.1004 -1.1674 -0.8963 9.5411 5.6032 2.4884 -7.9626 18.6769 19.4043 -15.0346 -29.4949 15.0758 -59.8037 -8.7772 0.0000 19.8689 0.0482 0.3939 -6.9690 33.1476 -0.0000 26.2537 -2.8955 -6.5517 -2.0025 -2.4554 -13.8103 62.4070 19.4360 -0.0000 27.2584 -0.0479 -1.3460 -2.0398 32.8623 0.0000 -24.3270 10.3441 16.2912 3.9618 -9.2214 -0.0000 -0.0000 -15.4916 28.4141 6.5863 22.3426 -0.0000 0.0000 8.2243 -2.1525 4.5351 -4.9768 0.0000 0.0000 -4.7759 -27.9045 -6.4782 13.8637 -0.0000 0.0000
 -5.3166 35.2292 -9.6922 -1.6580 -6.6122 -6.0907 -1.2164 -0.8941 9.5573 5.6549 2.4440 -8.0347 18.6673 19.3723 -15.2547 -29.0798 15.1051 -60.4676 -8.3720 0.0000 19.6883 0.0395 0.3162 -7.1182 33.1476 -0.0000 26.2537 -2.7155 -6.5321 -1.8499 -2.1516 -13.6441 63.1573 19.1802 -0.0000 27.2135 -0.0260 -1.0998 -1.3555 32.8623 0.0000 -24.3270 10.3668 16.3009 3.9497 -9.2096 -0.0000 0.0000 -15.4827 28.3575 6.6048 22.3426 0.0000 0.0000 8.2356 -2.1513 4.5148 -4.9708 0.0000 0.0000 -4.7337 -27.8963 -6.3710 13.6831 -0.0000 -0.0000
